# xmcd
#
# Track frame offsets:
#	150
#	19913
#	42763
#	81322
#	102629
#	120741
#	139590
#	153444
#	179637
#	193955
#	215061
#	232590
#	262608
#
# Disc length: 3683 seconds
#
# Revision: 4
# Processed by: cddbd v1.5.2PL0 Copyright (c) Steve Scherf et al.
# Submitted via: audiograbber 1.83.01
#
DISCID=b20e610d
DTITLE=Various Artist - Crucial Live! Blues
DYEAR=2004
DGENRE=Blues
TTITLE0=Lonnie Mack - Riding The Blinds
TTITLE1=Albert Collins - Tired Man
TTITLE2=Luther Allison - Cherry Red Wine
TTITLE3=Koko Taylor - Going Back To Iuka
TTITLE4=Elvin Bishop - My Dog
TTITLE5=Little Charlie and The Nightcats - Eyes Like A Cat
TTITLE6=Saffire-The Uppity Blues Women - Dump That Chump
TTITLE7=Lonnie Brooks - Born With The Blues
TTITLE8=James Cotton - Born In Chicago
TTITLE9=Son Seals - Call My Job
TTITLE10=Delbert McClinton - Going Back To Louisiana
TTITLE11=Dave Hole - Short Fuse Blues
TTITLE12=Hound Dog Taylor and Houserockers - Dust My Broom
EXTD=
EXTT0=
EXTT1=
EXTT2=
EXTT3=
EXTT4=
EXTT5=
EXTT6=
EXTT7=
EXTT8=
EXTT9=
EXTT10=
EXTT11=
EXTT12=
PLAYORDER=
